<svg width="128" height="128" viewBox="0 0 128 128" fill="none" xmlns="http://www.w3.org/2000/svg">
<g clip-path="url(#clip0_2_3)">
<path d="M102.4 12.3077H24.7C17.3231 12.3077 11.3429 18.2879 11.3429 25.6649V103.365C11.3429 110.742 17.3231 116.722 24.7 116.722H102.4C109.777 116.722 115.758 110.742 115.758 103.365V25.6649C115.758 18.2879 109.777 12.3077 102.4 12.3077Z" fill="#00C28F"/>
<path d="M81.7768 79.9677C78.7174 83.0818 74.8032 85.2187 70.5292 86.1081C66.2553 86.9974 61.8135 86.5994 57.7658 84.9642C53.7181 83.3291 50.2462 80.5303 47.7893 76.9218C45.3323 73.3134 44.0006 69.0573 43.9627 64.692C43.9247 60.3266 45.1822 56.048 47.576 52.3974C49.9699 48.7468 53.3925 45.888 57.4112 44.1827C61.4299 42.4774 65.864 42.0022 70.1528 42.8171C74.4416 43.632 78.3923 45.7005 81.5055 48.7609L90.7921 38.6602C85.6906 33.7755 79.2578 30.5094 72.3039 29.2733C65.3499 28.0372 58.1857 28.8863 51.7133 31.7136C45.2409 34.541 39.7498 39.2202 35.9314 45.1621C32.113 51.1039 30.1381 58.0427 30.2553 65.1047C30.3725 72.1667 32.5766 79.0362 36.5901 84.848C40.6035 90.6599 46.2469 95.1543 52.8096 97.7653C59.3722 100.376 66.5607 100.987 73.4698 99.521C80.3789 98.0548 86.6998 94.5771 91.6364 89.5258L81.7768 79.9677Z" fill="white"/>
</g>
<defs>
<clipPath id="clip0_2_3">
<rect width="128" height="128" fill="white"/>
</clipPath>
</defs>
</svg>
