<svg width="927" height="927" viewBox="0 0 927 927" fill="none" xmlns="http://www.w3.org/2000/svg">
<g filter="url(#filter0_d_1_3)">
<rect x="4" width="919" height="919" rx="45" fill="#3A3A3A" shape-rendering="crispEdges"/>
<path d="M178.441 532.652V500.426L70.043 461.461V458.824L178.441 419.859V387.633L38.1094 445.348V474.938L178.441 532.652ZM206.42 564H237.182L250.805 513.316H324.633L338.256 564H369.018L308.959 355.992H266.479L206.42 564ZM258.275 485.484L286.4 381.188H289.037L317.162 485.484H258.275ZM448.266 564H478.734V383.824H539.672V355.992H387.328V383.824H448.266V564ZM734.203 532.652L874.535 474.938V445.348L712.084 378.404L734.496 328.16H703.441L585.668 591.832H616.723L700.219 404.918L836.742 458.824V461.461L734.203 500.426V532.652Z" fill="white"/>
<rect x="15" y="11" width="897" height="897" rx="34" stroke="white" stroke-width="22" shape-rendering="crispEdges"/>
</g>
<defs>
<filter id="filter0_d_1_3" x="0" y="0" width="927" height="927" filterUnits="userSpaceOnUse" color-interpolation-filters="sRGB">
<feFlood flood-opacity="0" result="BackgroundImageFix"/>
<feColorMatrix in="SourceAlpha" type="matrix" values="0 0 0 0 0 0 0 0 0 0 0 0 0 0 0 0 0 0 127 0" result="hardAlpha"/>
<feOffset dy="4"/>
<feGaussianBlur stdDeviation="2"/>
<feComposite in2="hardAlpha" operator="out"/>
<feColorMatrix type="matrix" values="0 0 0 0 0 0 0 0 0 0 0 0 0 0 0 0 0 0 0.25 0"/>
<feBlend mode="normal" in2="BackgroundImageFix" result="effect1_dropShadow_1_3"/>
<feBlend mode="normal" in="SourceGraphic" in2="effect1_dropShadow_1_3" result="shape"/>
</filter>
</defs>
</svg>
